<svg width="512" height="512" viewBox="0 0 512 512" fill="none" xmlns="http://www.w3.org/2000/svg">
  <defs>
    <linearGradient id="g" x1="120" y1="96" x2="392" y2="416" gradientUnits="userSpaceOnUse">
      <stop stop-color="#6C63FF"/>
      <stop offset="1" stop-color="#8B7CFF"/>
    </linearGradient>
  </defs>

  <!-- Logo mark -->
  <rect x="64" y="64" width="384" height="384" rx="112" fill="url(#g)"/>

  <!-- Shopping bag -->
  <path d="M168 220C168 201 183 186 202 186H310C329 186 344 201 344 220V338C344 361 325 380 302 380H210C187 380 168 361 168 338V220Z" fill="white"/>

  <!-- Bag handle -->
  <path d="M210 220V196C210 171 230 151 255 151H257C282 151 302 171 302 196V220"
        stroke="white" stroke-width="20" stroke-linecap="round"/>

  <!-- Spark -->
  <path d="M256 258L267 285L294 296L267 307L256 334L245 307L218 296L245 285L256 258Z"
        fill="#6C63FF"/>
</svg>